ffmpeg started on 2016-12-09 at 00:13:49
Report written to "Output/x264/results/ffmpeg/sintelveryslow12000k.log"
Command line:
Tools/ffmpeg/ffmpeg -benchmark -y -i Input/y4m/sintel.y4m -c:v libx264 -preset veryslow -b:v 12000k -an Output/x264/encoded/sintelveryslow12000k.mkv
ffmpeg version N-82227-gdb23fde Copyright (c) 2000-2016 the FFmpeg developers
  built with gcc 5.4.0 (Ubuntu 5.4.0-6ubuntu1~16.04.2) 20160609
  configuration: --prefix=/home/jaroslav/ffmpeg_build --pkg-config-flags=--static --extra-cflags=-I/home/jaroslav/ffmpeg_build/include --extra-ldflags=-L/home/jaroslav/ffmpeg_build/lib --bindir=/home/jaroslav/bin --enable-gpl --enable-libass --enable-libfdk-aac --enable-libfreetype --enable-libmp3lame --enable-libopus --enable-libtheora --enable-libvorbis --enable-libvpx --enable-libx264 --enable-libx265 --enable-nvenc --enable-libmfx --enable-libxvid --enable-libgsm --enable-libopencore-amrnb --enable-version3 --enable-nonfree
  libavutil      55. 35.100 / 55. 35.100
  libavcodec     57. 66.101 / 57. 66.101
  libavformat    57. 57.100 / 57. 57.100
  libavdevice    57.  2.100 / 57.  2.100
  libavfilter     6. 66.100 /  6. 66.100
  libswscale      4.  3.100 /  4.  3.100
  libswresample   2.  4.100 /  2.  4.100
  libpostproc    54.  2.100 / 54.  2.100
Input #0, yuv4mpegpipe, from 'Input/y4m/sintel.y4m':
  Duration: 00:00:20.83, start: 0.000000, bitrate: 2057307 kb/s
    Stream #0:0: Video: rawvideo (I420 / 0x30323449), yuv420p(progressive), 4096x1744, SAR 1:1 DAR 256:109, 24 fps, 24 tbr, 24 tbn, 24 tbc
[libx264 @ 0x46671c0] using SAR=1/1
[libx264 @ 0x46671c0] DPB size (16 frames, 446464 mbs) > level limit (6 frames, 184320 mbs)
[libx264 @ 0x46671c0] using cpu capabilities: MMX2 SSE2Fast SSSE3 SSE4.2 AVX FMA3 AVX2 LZCNT BMI2
[libx264 @ 0x46671c0] profile High, level 5.2
[libx264 @ 0x46671c0] 264 - core 148 - H.264/MPEG-4 AVC codec - Copyleft 2003-2016 - http://www.videolan.org/x264.html - options: cabac=1 ref=16 deblock=1:0:0 analyse=0x3:0x133 me=umh subme=10 psy=1 psy_rd=1.00:0.00 mixed_ref=1 me_range=24 chroma_me=1 trellis=2 8x8dct=1 cqm=0 deadzone=21,11 fast_pskip=1 chroma_qp_offset=-2 threads=6 lookahead_threads=1 sliced_threads=0 nr=0 decimate=1 interlaced=0 bluray_compat=0 constrained_intra=0 bframes=8 b_pyramid=2 b_adapt=2 b_bias=0 direct=3 weightb=1 open_gop=0 weightp=2 keyint=250 keyint_min=24 scenecut=40 intra_refresh=0 rc_lookahead=60 rc=abr mbtree=1 bitrate=12000 ratetol=1.0 qcomp=0.60 qpmin=0 qpmax=69 qpstep=4 ip_ratio=1.40 aq=1:1.00
Output #0, matroska, to 'Output/x264/encoded/sintelveryslow12000k.mkv':
  Metadata:
    encoder         : Lavf57.57.100
    Stream #0:0: Video: h264 (libx264) (H264 / 0x34363248), yuv420p, 4096x1744 [SAR 1:1 DAR 256:109], q=-1--1, 12000 kb/s, 24 fps, 1k tbn, 24 tbc
    Metadata:
      encoder         : Lavc57.66.101 libx264
    Side data:
      cpb: bitrate max/min/avg: 0/0/12000000 buffer size: 0 vbv_delay: -1
Stream mapping:
  Stream #0:0 -> #0:0 (rawvideo (native) -> h264 (libx264))
Press [q] to stop, [?] for help
frame=    3 fps=0.9 q=0.0 size=       0kB time=00:00:00.00 bitrate=N/A speed=   0x    frame=   10 fps=2.6 q=0.0 size=       0kB time=00:00:00.00 bitrate=N/A speed=   0x    frame=   18 fps=4.1 q=0.0 size=       0kB time=00:00:00.00 bitrate=N/A speed=   0x    frame=   29 fps=5.9 q=0.0 size=       0kB time=00:00:00.00 bitrate=N/A speed=   0x    frame=   40 fps=7.3 q=0.0 size=       0kB time=00:00:00.00 bitrate=N/A speed=   0x    frame=   51 fps=8.5 q=0.0 size=       0kB time=00:00:00.00 bitrate=N/A speed=   0x    frame=   62 fps=9.5 q=0.0 size=       0kB time=00:00:00.00 bitrate=N/A speed=   0x    frame=   72 fps=2.9 q=0.0 size=       0kB time=00:00:00.00 bitrate=N/A speed=   0x    frame=   76 fps=2.9 q=23.0 size=       1kB time=-00:00:00.08 bitrate=N/A speed=N/A    frame=   78 fps=2.8 q=32.0 size=       1kB time=00:00:00.00 bitrate=5888.0kbits/s speed=3.56e-05x    frame=   79 fps=2.7 q=28.0 size=       1kB time=00:00:00.04 bitrate= 136.9kbits/s speed=0.00147x    frame=   80 fps=2.7 q=39.0 size=       1kB time=00:00:00.08 bitrate=  70.1kbits/s speed=0.0028x    frame=   81 fps=2.6 q=34.0 size=       1kB time=00:00:00.12 bitrate=  46.7kbits/s speed=0.00399x    frame=   82 fps=2.5 q=37.0 size=       1kB time=00:00:00.16 bitrate=  35.0kbits/s speed=0.00517x    frame=   83 fps=2.5 q=40.0 size=       1kB time=00:00:00.20 bitrate=  28.2kbits/s speed=0.00624x    frame=   85 fps=2.5 q=40.0 size=       1kB time=00:00:00.29 bitrate=  20.1kbits/s speed=0.00861x    frame=   87 fps=2.5 q=40.0 size=       1kB time=00:00:00.37 bitrate=  15.7kbits/s speed=0.0107x    frame=   88 fps=2.5 q=40.0 size=       1kB time=00:00:00.41 bitrate=  14.1kbits/s speed=0.0117x    frame=   89 fps=2.4 q=40.0 size=       1kB time=00:00:00.45 bitrate=  12.8kbits/s speed=0.0125x    frame=   90 fps=2.4 q=39.0 size=       1kB time=00:00:00.50 bitrate=  11.8kbits/s speed=0.0133x    frame=   91 fps=2.4 q=39.0 size=       1kB time=00:00:00.54 bitrate=  10.8kbits/s speed=0.0141x    frame=   92 fps=2.3 q=39.0 size=       1kB time=00:00:00.58 bitrate=  10.1kbits/s speed=0.0148x    frame=   93 fps=2.2 q=39.0 size=       1kB time=00:00:00.62 bitrate=   9.4kbits/s speed=0.0151x    frame=   94 fps=2.2 q=39.0 size=       1kB time=00:00:00.66 bitrate=   8.8kbits/s speed=0.0159x    frame=   95 fps=2.2 q=39.0 size=       1kB time=00:00:00.70 bitrate=   8.3kbits/s speed=0.0166x    frame=   96 fps=2.2 q=39.0 size=       1kB time=00:00:00.75 bitrate=   7.8kbits/s speed=0.017x    frame=   97 fps=2.1 q=39.0 size=       1kB time=00:00:00.79 bitrate=   7.4kbits/s speed=0.0174x    frame=   98 fps=2.1 q=39.0 size=       1kB time=00:00:00.83 bitrate=   7.1kbits/s speed=0.0178x    frame=   99 fps=2.1 q=39.0 size=       1kB time=00:00:00.87 bitrate=   6.7kbits/s speed=0.0182x    frame=  100 fps=2.0 q=39.0 size=       1kB time=00:00:00.91 bitrate=   6.4kbits/s speed=0.0187x    frame=  101 fps=2.0 q=39.0 size=       1kB time=00:00:00.95 bitrate=   6.1kbits/s speed=0.0189x    frame=  102 fps=2.0 q=39.0 size=       1kB time=00:00:01.00 bitrate=   5.9kbits/s speed=0.0193x    frame=  104 fps=2.0 q=38.0 size=       1kB time=00:00:01.08 bitrate=   5.4kbits/s speed=0.0205x    frame=  105 fps=2.0 q=38.0 size=       1kB time=00:00:01.12 bitrate=   5.2kbits/s speed=0.021x    frame=  106 fps=2.0 q=38.0 size=       1kB time=00:00:01.16 bitrate=   5.0kbits/s speed=0.0215x    frame=  107 fps=1.9 q=38.0 size=       1kB time=00:00:01.20 bitrate=   4.9kbits/s speed=0.0213x    frame=  108 fps=1.8 q=38.0 size=       1kB time=00:00:01.25 bitrate=   4.7kbits/s speed=0.0213x    frame=  109 fps=1.8 q=38.0 size=       1kB time=00:00:01.29 bitrate=   4.6kbits/s speed=0.0217x    frame=  110 fps=1.8 q=38.0 size=       1kB time=00:00:01.33 bitrate=   4.4kbits/s speed=0.0222x    frame=  111 fps=1.8 q=38.0 size=       1kB time=00:00:01.37 bitrate=   4.3kbits/s speed=0.0225x    frame=  112 fps=1.8 q=38.0 size=       1kB time=00:00:01.41 bitrate=   4.2kbits/s speed=0.0227x    frame=  113 fps=1.8 q=37.0 size=       1kB time=00:00:01.45 bitrate=   4.0kbits/s speed=0.0229x    frame=  114 fps=1.8 q=37.0 size=       1kB time=00:00:01.50 bitrate=   3.9kbits/s speed=0.0233x    frame=  115 fps=1.7 q=37.0 size=       1kB time=00:00:01.54 bitrate=   3.8kbits/s speed=0.0234x    frame=  116 fps=1.7 q=37.0 size=       1kB time=00:00:01.58 bitrate=   3.7kbits/s speed=0.0237x    frame=  117 fps=1.7 q=37.0 size=       1kB time=00:00:01.62 bitrate=   3.6kbits/s speed=0.024x    frame=  118 fps=1.7 q=37.0 size=       1kB time=00:00:01.66 bitrate=   3.5kbits/s speed=0.0244x    frame=  119 fps=1.7 q=37.0 size=       1kB time=00:00:01.70 bitrate=   3.4kbits/s speed=0.0246x    frame=  120 fps=1.7 q=37.0 size=       1kB time=00:00:01.75 bitrate=   3.4kbits/s speed=0.025x    frame=  121 fps=1.7 q=37.0 size=       1kB time=00:00:01.79 bitrate=   3.3kbits/s speed=0.0252x    frame=  122 fps=1.7 q=37.0 size=       1kB time=00:00:01.83 bitrate=   3.2kbits/s speed=0.0255x    frame=  123 fps=1.7 q=36.0 size=       1kB time=00:00:01.87 bitrate=   3.1kbits/s speed=0.0259x    frame=  124 fps=1.7 q=36.0 size=       1kB time=00:00:01.91 bitrate=   3.1kbits/s speed=0.026x    frame=  125 fps=1.7 q=36.0 size=       1kB time=00:00:01.95 bitrate=   3.0kbits/s speed=0.0261x    frame=  126 fps=1.7 q=36.0 size=       1kB time=00:00:02.00 bitrate=   2.9kbits/s speed=0.0263x    frame=  127 fps=1.6 q=36.0 size=       1kB time=00:00:02.04 bitrate=   2.9kbits/s speed=0.0263x    frame=  128 fps=1.6 q=36.0 size=       1kB time=00:00:02.08 bitrate=   2.8kbits/s speed=0.0265x    frame=  129 fps=1.6 q=36.0 size=       1kB time=00:00:02.12 bitrate=   2.8kbits/s speed=0.0265x    frame=  130 fps=1.6 q=36.0 size=       1kB time=00:00:02.16 bitrate=   2.7kbits/s speed=0.0267x    frame=  131 fps=1.6 q=36.0 size=       1kB time=00:00:02.20 bitrate=   2.7kbits/s speed=0.0268x    frame=  132 fps=1.6 q=36.0 size=       1kB time=00:00:02.25 bitrate=   2.6kbits/s speed=0.0268x    frame=  133 fps=1.6 q=36.0 size=       1kB time=00:00:02.29 bitrate=   2.6kbits/s speed=0.0269x    frame=  134 fps=1.6 q=36.0 size=       1kB time=00:00:02.33 bitrate=   2.5kbits/s speed=0.0271x    frame=  135 fps=1.5 q=36.0 size=       1kB time=00:00:02.37 bitrate=   2.5kbits/s speed=0.0271x    frame=  136 fps=1.5 q=36.0 size=       1kB time=00:00:02.41 bitrate=   2.4kbits/s speed=0.027x    frame=  137 fps=1.5 q=36.0 size=       1kB time=00:00:02.45 bitrate=   2.4kbits/s speed=0.0271x    frame=  138 fps=1.5 q=36.0 size=       1kB time=00:00:02.50 bitrate=   2.4kbits/s speed=0.0273x    frame=  139 fps=1.5 q=36.0 size=       1kB time=00:00:02.54 bitrate=   2.3kbits/s speed=0.0275x    frame=  140 fps=1.5 q=36.0 size=       1kB time=00:00:02.58 bitrate=   2.3kbits/s speed=0.0277x    frame=  141 fps=1.5 q=36.0 size=       1kB time=00:00:02.62 bitrate=   2.2kbits/s speed=0.028x    frame=  142 fps=1.4 q=36.0 size=       1kB time=00:00:02.66 bitrate=   2.2kbits/s speed=0.0272x    frame=  143 fps=1.4 q=36.0 size=       1kB time=00:00:02.70 bitrate=   2.2kbits/s speed=0.0274x    frame=  144 fps=1.4 q=36.0 size=       1kB time=00:00:02.75 bitrate=   2.1kbits/s speed=0.0276x    frame=  145 fps=1.4 q=36.0 size=       1kB time=00:00:02.79 bitrate=   2.1kbits/s speed=0.0277x    frame=  146 fps=1.4 q=35.0 size=       1kB time=00:00:02.83 bitrate=   2.1kbits/s speed=0.0279x    frame=  147 fps=1.4 q=35.0 size=       1kB time=00:00:02.87 bitrate=   2.0kbits/s speed=0.028x    frame=  148 fps=1.4 q=35.0 size=       1kB time=00:00:02.91 bitrate=   2.0kbits/s speed=0.0277x    frame=  149 fps=1.4 q=35.0 size=    5136kB time=00:00:02.95 bitrate=14220.4kbits/s speed=0.0279x    frame=  150 fps=1.4 q=35.0 size=    5136kB time=00:00:03.00 bitrate=14021.4kbits/s speed=0.028x    frame=  151 fps=1.4 q=35.0 size=    5136kB time=00:00:03.04 bitrate=13827.8kbits/s speed=0.0282x    frame=  152 fps=1.4 q=35.0 size=    5136kB time=00:00:03.08 bitrate=13644.0kbits/s speed=0.0281x    frame=  153 fps=1.4 q=35.0 size=    5136kB time=00:00:03.12 bitrate=13460.7kbits/s speed=0.0283x    frame=  154 fps=1.4 q=35.0 size=    5136kB time=00:00:03.16 bitrate=13282.2kbits/s speed=0.028x    frame=  155 fps=1.4 q=35.0 size=    5136kB time=00:00:03.20 bitrate=13112.5kbits/s speed=0.0281x    frame=  156 fps=1.4 q=35.0 size=    5136kB time=00:00:03.25 bitrate=12943.1kbits/s speed=0.0282x    frame=  157 fps=1.4 q=35.0 size=    5136kB time=00:00:03.29 bitrate=12778.0kbits/s speed=0.0284x    frame=  158 fps=1.4 q=35.0 size=    5136kB time=00:00:03.33 bitrate=12620.9kbits/s speed=0.0285x    frame=  159 fps=1.3 q=35.0 size=    5136kB time=00:00:03.37 bitrate=12463.9kbits/s speed=0.0287x    frame=  160 fps=1.3 q=35.0 size=    5136kB time=00:00:03.41 bitrate=12310.7kbits/s speed=0.0284x    frame=  161 fps=1.3 q=35.0 size=    5136kB time=00:00:03.45 bitrate=12164.8kbits/s speed=0.0286x    frame=  162 fps=1.3 q=35.0 size=    5136kB time=00:00:03.50 bitrate=12018.9kbits/s speed=0.0285x    frame=  163 fps=1.3 q=35.0 size=    5136kB time=00:00:03.54 bitrate=11876.4kbits/s speed=0.0286x    frame=  164 fps=1.3 q=34.0 size=    5136kB time=00:00:03.58 bitrate=11740.5kbits/s speed=0.0287x    frame=  166 fps=1.3 q=34.0 size=    5136kB time=00:00:03.66 bitrate=11471.7kbits/s speed=0.0289x    frame=  167 fps=1.3 q=34.0 size=    5136kB time=00:00:03.70 bitrate=11344.9kbits/s speed=0.0291x    frame=  168 fps=1.3 q=34.0 size=    5136kB time=00:00:03.75 bitrate=11217.8kbits/s speed=0.029x    frame=  169 fps=1.3 q=34.0 size=    5136kB time=00:00:03.79 bitrate=11093.6kbits/s speed=0.0291x    frame=  170 fps=1.3 q=34.0 size=    5136kB time=00:00:03.83 bitrate=10975.0kbits/s speed=0.0292x    frame=  171 fps=1.3 q=34.0 size=    5136kB time=00:00:03.87 bitrate=10856.1kbits/s speed=0.0293x    frame=  172 fps=1.3 q=34.0 size=    5136kB time=00:00:03.91 bitrate=10739.7kbits/s speed=0.0292x    frame=  173 fps=1.3 q=34.0 size=    5136kB time=00:00:03.95 bitrate=10628.5kbits/s speed=0.0293x    frame=  175 fps=1.3 q=34.0 size=    5136kB time=00:00:04.04 bitrate=10407.6kbits/s speed=0.0297x    frame=  176 fps=1.3 q=34.0 size=    5136kB time=00:00:04.08 bitrate=10303.2kbits/s speed=0.0297x    frame=  177 fps=1.3 q=34.0 size=    5136kB time=00:00:04.12 bitrate=10198.3kbits/s speed=0.0298x    frame=  178 fps=1.3 q=34.0 size=    5136kB time=00:00:04.16 bitrate=10095.5kbits/s speed=0.0295x    frame=  179 fps=1.3 q=34.0 size=    5136kB time=00:00:04.20 bitrate=9997.2kbits/s speed=0.0296x    frame=  182 fps=1.3 q=34.0 size=    5136kB time=00:00:04.33 bitrate=9708.8kbits/s speed=0.0299x    frame=  183 fps=1.3 q=34.0 size=    5136kB time=00:00:04.37 bitrate=9615.6kbits/s speed=0.03x    frame=  184 fps=1.3 q=34.0 size=    5136kB time=00:00:04.41 bitrate=9524.2kbits/s speed=0.0302x    frame=  186 fps=1.3 q=33.0 size=    5136kB time=00:00:04.50 bitrate=9348.6kbits/s speed=0.0304x    frame=  187 fps=1.3 q=33.0 size=    5136kB time=00:00:04.54 bitrate=9262.2kbits/s speed=0.0306x    frame=  188 fps=1.2 q=33.0 size=    5136kB time=00:00:04.58 bitrate=9179.3kbits/s speed=0.0304x    frame=  189 fps=1.2 q=33.0 size=    5136kB time=00:00:04.62 bitrate=9096.0kbits/s speed=0.0305x    frame=  191 fps=1.2 q=33.0 size=    5136kB time=00:00:04.70 bitrate=8935.7kbits/s speed=0.0308x    frame=  192 fps=1.2 q=33.0 size=    5136kB time=00:00:04.75 bitrate=8856.7kbits/s speed=0.0303x    frame=  193 fps=1.2 q=33.0 size=    5136kB time=00:00:04.79 bitrate=8779.1kbits/s speed=0.0304x    frame=  194 fps=1.2 q=33.0 size=    5136kB time=00:00:04.83 bitrate=8704.6kbits/s speed=0.0306x    frame=  196 fps=1.2 q=33.0 size=    5136kB time=00:00:04.91 bitrate=8555.9kbits/s speed=0.0309x    frame=  197 fps=1.2 q=33.0 size=    5136kB time=00:00:04.95 bitrate=8485.2kbits/s speed=0.031x    frame=  198 fps=1.2 q=33.0 size=    5136kB time=00:00:05.00 bitrate=8413.9kbits/s speed=0.0308x    frame=  199 fps=1.2 q=33.0 size=    5136kB time=00:00:05.04 bitrate=8343.9kbits/s speed=0.0307x    frame=  200 fps=1.2 q=33.0 size=    5136kB time=00:00:05.08 bitrate=8276.6kbits/s speed=0.0308x    frame=  201 fps=1.2 q=33.0 size=    5136kB time=00:00:05.12 bitrate=8208.8kbits/s speed=0.0309x    frame=  202 fps=1.2 q=33.0 size=    5136kB time=00:00:05.16 bitrate=8142.0kbits/s speed=0.031x    frame=  203 fps=1.2 q=33.0 size=    5136kB time=00:00:05.20 bitrate=8078.0kbits/s speed=0.0311x    frame=  204 fps=1.2 q=33.0 size=    5136kB time=00:00:05.25 bitrate=8013.3kbits/s speed=0.0311x    frame=  205 fps=1.2 q=33.0 size=    5136kB time=00:00:05.29 bitrate=7949.8kbits/s speed=0.0311x    frame=  206 fps=1.2 q=33.0 size=    5136kB time=00:00:05.33 bitrate=7888.7kbits/s speed=0.031x    frame=  207 fps=1.2 q=33.0 size=    5136kB time=00:00:05.37 bitrate=7827.0kbits/s speed=0.0311x    frame=  208 fps=1.2 q=33.0 size=    5136kB time=00:00:05.41 bitrate=7766.3kbits/s speed=0.0312x    frame=  209 fps=1.2 q=33.0 size=    5136kB time=00:00:05.45 bitrate=7708.0kbits/s speed=0.0313x    frame=  210 fps=1.2 q=33.0 size=    5136kB time=00:00:05.50 bitrate=7649.2kbits/s speed=0.0314x    frame=  211 fps=1.2 q=33.0 size=    5136kB time=00:00:05.54 bitrate=7591.2kbits/s speed=0.0315x    frame=  212 fps=1.2 q=33.0 size=    5136kB time=00:00:05.58 bitrate=7535.5kbits/s speed=0.0314x    frame=  213 fps=1.2 q=33.0 size=    5136kB time=00:00:05.62 bitrate=7479.2kbits/s speed=0.0315x    frame=  214 fps=1.2 q=33.0 size=    5136kB time=00:00:05.66 bitrate=7423.8kbits/s speed=0.0317x    frame=  215 fps=1.2 q=33.0 size=    5136kB time=00:00:05.70 bitrate=7370.5kbits/s speed=0.0317x    frame=  216 fps=1.2 q=33.0 size=    5136kB time=00:00:05.75 bitrate=7316.7kbits/s speed=0.0318x    frame=  217 fps=1.2 q=33.0 size=    5136kB time=00:00:05.79 bitrate=7263.6kbits/s speed=0.0319x    frame=  218 fps=1.2 q=33.0 size=    5136kB time=00:00:05.83 bitrate=7212.6kbits/s speed=0.0319x    frame=  219 fps=1.2 q=33.0 size=    5136kB time=00:00:05.87 bitrate=7161.0kbits/s speed=0.0319x    frame=  220 fps=1.2 q=33.0 size=    5136kB time=00:00:05.91 bitrate=7110.2kbits/s speed=0.032x    frame=  221 fps=1.2 q=33.0 size=    5136kB time=00:00:05.95 bitrate=7061.3kbits/s speed=0.0319x    frame=  222 fps=1.2 q=33.0 size=    5136kB time=00:00:06.00 bitrate=7011.8kbits/s speed=0.0321x    frame=  223 fps=1.2 q=33.0 size=    5136kB time=00:00:06.04 bitrate=6963.1kbits/s speed=0.0322x    frame=  224 fps=1.2 q=33.0 size=    5136kB time=00:00:06.08 bitrate=6916.2kbits/s speed=0.0322x    frame=  225 fps=1.2 q=33.0 size=    5136kB time=00:00:06.12 bitrate=6868.8kbits/s speed=0.0323x    frame=  226 fps=1.2 q=33.0 size=    5136kB time=00:00:06.16 bitrate=6822.0kbits/s speed=0.0324x    frame=  227 fps=1.2 q=33.0 size=    5136kB time=00:00:06.20 bitrate=6776.9kbits/s speed=0.0322x    frame=  228 fps=1.2 q=33.0 size=    5136kB time=00:00:06.25 bitrate=6731.4kbits/s speed=0.0323x    frame=  229 fps=1.2 q=33.0 size=    5136kB time=00:00:06.29 bitrate=6686.5kbits/s speed=0.0324x    frame=  231 fps=1.2 q=33.0 size=    5136kB time=00:00:06.37 bitrate=6599.4kbits/s speed=0.0327x    frame=  233 fps=1.2 q=33.0 size=    5136kB time=00:00:06.45 bitrate=6514.6kbits/s speed=0.0323x    frame=  234 fps=1.2 q=33.0 size=    5136kB time=00:00:06.50 bitrate=6472.6kbits/s speed=0.0324x    frame=  235 fps=1.2 q=32.0 size=    5136kB time=00:00:06.54 bitrate=6431.0kbits/s speed=0.0325x    frame=  236 fps=1.2 q=32.0 size=    5136kB time=00:00:06.58 bitrate=6391.0kbits/s speed=0.0326x    frame=  237 fps=1.2 q=32.0 size=    5136kB time=00:00:06.62 bitrate=6350.4kbits/s speed=0.0327x    frame=  238 fps=1.2 q=32.0 size=    5136kB time=00:00:06.66 bitrate=6310.4kbits/s speed=0.0327x    frame=  239 fps=1.2 q=32.0 size=    5136kB time=00:00:06.70 bitrate=6271.9kbits/s speed=0.0326x    frame=  240 fps=1.2 q=32.0 size=    5136kB time=00:00:06.75 bitrate=6232.9kbits/s speed=0.0326x    frame=  241 fps=1.2 q=32.0 size=    5136kB time=00:00:06.79 bitrate=6194.3kbits/s speed=0.0327x    frame=  242 fps=1.2 q=32.0 size=    5136kB time=00:00:06.83 bitrate=6157.2kbits/s speed=0.0327x    frame=  243 fps=1.2 q=32.0 size=    5136kB time=00:00:06.87 bitrate=6119.6kbits/s speed=0.0328x    frame=  244 fps=1.2 q=32.0 size=    5136kB time=00:00:06.91 bitrate=6082.4kbits/s speed=0.0329x    frame=  246 fps=1.2 q=32.0 size=    5136kB time=00:00:07.00 bitrate=6010.3kbits/s speed=0.0328x    frame=  247 fps=1.2 q=32.0 size=    5136kB time=00:00:07.04 bitrate=5974.5kbits/s speed=0.0328x    frame=  248 fps=1.2 q=32.0 size=    5136kB time=00:00:07.08 bitrate=5939.9kbits/s speed=0.0329x    frame=  249 fps=1.2 q=32.0 size=    5136kB time=00:00:07.12 bitrate=5904.9kbits/s speed=0.033x    frame=  250 fps=1.2 q=32.0 size=    5136kB time=00:00:07.16 bitrate=5870.3kbits/s speed=0.0331x    frame=  252 fps=1.2 q=32.0 size=    5136kB time=00:00:07.25 bitrate=5803.1kbits/s speed=0.0331x    frame=  253 fps=1.1 q=32.0 size=    5136kB time=00:00:07.29 bitrate=5769.7kbits/s speed=0.0331x    frame=  254 fps=1.2 q=32.0 size=    5136kB time=00:00:07.33 bitrate=5737.4kbits/s speed=0.0332x    frame=  255 fps=1.1 q=32.0 size=   10277kB time=00:00:07.37 bitrate=11413.8kbits/s speed=0.0332x    frame=  256 fps=1.1 q=32.0 size=   10277kB time=00:00:07.41 bitrate=11349.2kbits/s speed=0.0332x    frame=  257 fps=1.1 q=32.0 size=   10277kB time=00:00:07.45 bitrate=11286.8kbits/s speed=0.0333x    frame=  258 fps=1.1 q=32.0 size=   10277kB time=00:00:07.50 bitrate=11223.6kbits/s speed=0.0334x    frame=  259 fps=1.1 q=32.0 size=   10277kB time=00:00:07.54 bitrate=11161.1kbits/s speed=0.0334x    frame=  260 fps=1.1 q=32.0 size=   10277kB time=00:00:07.58 bitrate=11100.8kbits/s speed=0.0331x    frame=  261 fps=1.1 q=32.0 size=   10277kB time=00:00:07.62 bitrate=11039.6kbits/s speed=0.0331x    frame=  262 fps=1.1 q=32.0 size=   10277kB time=00:00:07.66 bitrate=10979.2kbits/s speed=0.0332x    frame=  266 fps=1.1 q=32.0 size=   10277kB time=00:00:07.83 bitrate=10746.5kbits/s speed=0.0337x    frame=  267 fps=1.1 q=32.0 size=   10277kB time=00:00:07.87 bitrate=10689.2kbits/s speed=0.0334x    frame=  269 fps=1.1 q=32.0 size=   10277kB time=00:00:07.95 bitrate=10577.7kbits/s speed=0.0335x    frame=  271 fps=1.1 q=32.0 size=   10277kB time=00:00:08.04 bitrate=10467.3kbits/s speed=0.0338x    frame=  273 fps=1.1 q=32.0 size=   10277kB time=00:00:08.12 bitrate=10360.3kbits/s speed=0.0336x    frame=  274 fps=1.1 q=32.0 size=   10277kB time=00:00:08.16 bitrate=10307.1kbits/s speed=0.0337x    frame=  275 fps=1.1 q=32.0 size=   10277kB time=00:00:08.20 bitrate=10255.6kbits/s speed=0.0338x    frame=  276 fps=1.1 q=32.0 size=   10277kB time=00:00:08.25 bitrate=10203.4kbits/s speed=0.0337x    frame=  277 fps=1.1 q=32.0 size=   10277kB time=00:00:08.29 bitrate=10151.7kbits/s speed=0.0337x    frame=  278 fps=1.1 q=32.0 size=   10277kB time=00:00:08.33 bitrate=10101.8kbits/s speed=0.0337x    frame=  279 fps=1.1 q=32.0 size=   10277kB time=00:00:08.37 bitrate=10051.1kbits/s speed=0.0338x    frame=  281 fps=1.1 q=32.0 size=   10277kB time=00:00:08.45 bitrate=9952.5kbits/s speed=0.034x    frame=  282 fps=1.1 q=32.0 size=   10277kB time=00:00:08.50 bitrate=9903.3kbits/s speed=0.034x    frame=  283 fps=1.1 q=32.0 size=   10277kB time=00:00:08.54 bitrate=9854.6kbits/s speed=0.0341x    frame=  284 fps=1.1 q=32.0 size=   10277kB time=00:00:08.58 bitrate=9807.6kbits/s speed=0.0337x    frame=  287 fps=1.1 q=31.0 size=   10277kB time=00:00:08.70 bitrate=9666.8kbits/s speed=0.0341x    frame=  288 fps=1.1 q=31.0 size=   10277kB time=00:00:08.75 bitrate=9620.4kbits/s speed=0.0342x    frame=  289 fps=1.1 q=32.0 size=   10277kB time=00:00:08.79 bitrate=9574.5kbits/s speed=0.0342x    frame=  290 fps=1.1 q=31.0 size=   10277kB time=00:00:08.83 bitrate=9530.0kbits/s speed=0.0341x    frame=  292 fps=1.1 q=32.0 size=   10277kB time=00:00:08.91 bitrate=9440.3kbits/s speed=0.0341x    frame=  293 fps=1.1 q=32.0 size=   10277kB time=00:00:08.95 bitrate=9397.1kbits/s speed=0.0342x    frame=  294 fps=1.1 q=32.0 size=   10277kB time=00:00:09.00 bitrate=9353.2kbits/s speed=0.0342x    frame=  295 fps=1.1 q=32.0 size=   10277kB time=00:00:09.04 bitrate=9309.8kbits/s speed=0.0343x    frame=  296 fps=1.1 q=31.0 size=   10277kB time=00:00:09.08 bitrate=9267.7kbits/s speed=0.0343x    frame=  298 fps=1.1 q=32.0 size=   10277kB time=00:00:09.16 bitrate=9182.8kbits/s speed=0.0342x    frame=  299 fps=1.1 q=32.0 size=   10277kB time=00:00:09.20 bitrate=9141.9kbits/s speed=0.0342x    frame=  300 fps=1.1 q=32.0 size=   10277kB time=00:00:09.25 bitrate=9100.4kbits/s speed=0.0343x    frame=  302 fps=1.1 q=31.0 size=   10277kB time=00:00:09.33 bitrate=9019.5kbits/s speed=0.0344x    frame=  303 fps=1.1 q=31.0 size=   10277kB time=00:00:09.37 bitrate=8979.1kbits/s speed=0.0345x    frame=  304 fps=1.1 q=31.0 size=   10277kB time=00:00:09.41 bitrate=8939.1kbits/s speed=0.0345x    frame=  305 fps=1.1 q=31.0 size=   10277kB time=00:00:09.45 bitrate=8900.3kbits/s speed=0.0345x    frame=  306 fps=1.1 q=31.0 size=   10277kB time=00:00:09.50 bitrate=8861.0kbits/s speed=0.0346x    frame=  309 fps=1.1 q=31.0 size=   10277kB time=00:00:09.62 bitrate=8745.9kbits/s speed=0.0345x    frame=  310 fps=1.1 q=31.0 size=   10277kB time=00:00:09.66 bitrate=8707.9kbits/s speed=0.0346x    frame=  312 fps=1.1 q=31.0 size=   10277kB time=00:00:09.75 bitrate=8633.8kbits/s speed=0.0347x    frame=  313 fps=1.1 q=31.0 size=   10277kB time=00:00:09.79 bitrate=8596.8kbits/s speed=0.0348x    frame=  314 fps=1.1 q=31.0 size=   10277kB time=00:00:09.83 bitrate=8560.9kbits/s speed=0.0348x    frame=  316 fps=1.1 q=31.0 size=   10277kB time=00:00:09.91 bitrate=8488.4kbits/s speed=0.035x    frame=  317 fps=1.1 q=31.0 size=   10277kB time=00:00:09.95 bitrate=8453.5kbits/s speed=0.035x    frame=  318 fps=1.1 q=31.0 size=   10277kB time=00:00:10.00 bitrate=8418.0kbits/s speed=0.035x    frame=  320 fps=1.1 q=31.0 size=   10277kB time=00:00:10.08 bitrate=8348.7kbits/s speed=0.0352x    frame=  321 fps=1.1 q=28.0 size=   10277kB time=00:00:10.12 bitrate=8314.1kbits/s speed=0.0351x    frame=  323 fps=1.1 q=31.0 size=   10277kB time=00:00:10.20 bitrate=8246.5kbits/s speed=0.0353x    frame=  324 fps=1.1 q=31.0 size=   10277kB time=00:00:10.25 bitrate=8212.7kbits/s speed=0.0352x    frame=  326 fps=1.1 q=31.0 size=   13874kB time=00:00:10.33 bitrate=10998.1kbits/s speed=0.0354x    frame=  332 fps=1.1 q=31.0 size=   13874kB time=00:00:10.58 bitrate=10738.3kbits/s speed=0.0361x    frame=  336 fps=1.1 q=28.0 size=   13874kB time=00:00:10.75 bitrate=10571.5kbits/s speed=0.0365x    frame=  338 fps=1.1 q=31.0 size=   13874kB time=00:00:10.83 bitrate=10490.5kbits/s speed=0.0367x    frame=  339 fps=1.1 q=31.0 size=   13874kB time=00:00:10.87 bitrate=10450.0kbits/s speed=0.0367x    frame=  342 fps=1.2 q=31.0 size=   13874kB time=00:00:11.00 bitrate=10331.3kbits/s speed=0.0371x    frame=  343 fps=1.2 q=30.0 size=   13874kB time=00:00:11.04 bitrate=10292.0kbits/s speed=0.0371x    frame=  345 fps=1.2 q=30.0 size=   13874kB time=00:00:11.12 bitrate=10215.2kbits/s speed=0.0372x    frame=  346 fps=1.1 q=30.0 size=   13874kB time=00:00:11.16 bitrate=10176.8kbits/s speed=0.0371x    frame=  348 fps=1.2 q=30.0 size=   13874kB time=00:00:11.25 bitrate=10101.7kbits/s speed=0.0373x    frame=  349 fps=1.2 q=30.0 size=   13874kB time=00:00:11.29 bitrate=10064.1kbits/s speed=0.0373x    frame=  350 fps=1.2 q=30.0 size=   13874kB time=00:00:11.33 bitrate=10027.7kbits/s speed=0.0373x    frame=  353 fps=1.1 q=30.0 size=   13874kB time=00:00:11.45 bitrate=9918.3kbits/s speed=0.0373x    frame=  354 fps=1.2 q=30.0 size=   13874kB time=00:00:11.50 bitrate=9882.1kbits/s speed=0.0374x    frame=  356 fps=1.2 q=30.0 size=   13874kB time=00:00:11.58 bitrate=9811.3kbits/s speed=0.0376x    frame=  357 fps=1.2 q=30.0 size=   13874kB time=00:00:11.62 bitrate=9775.9kbits/s speed=0.0376x    frame=  358 fps=1.2 q=30.0 size=   13874kB time=00:00:11.66 bitrate=9740.7kbits/s speed=0.0376x    frame=  359 fps=1.2 q=30.0 size=   13874kB time=00:00:11.70 bitrate=9706.6kbits/s speed=0.0376x    frame=  360 fps=1.1 q=30.0 size=   13874kB time=00:00:11.75 bitrate=9671.9kbits/s speed=0.0375x    frame=  361 fps=1.1 q=30.0 size=   13874kB time=00:00:11.79 bitrate=9637.4kbits/s speed=0.0375x    frame=  363 fps=1.2 q=30.0 size=   13874kB time=00:00:11.87 bitrate=9570.1kbits/s speed=0.0377x    frame=  364 fps=1.2 q=30.0 size=   13874kB time=00:00:11.91 bitrate=9536.4kbits/s speed=0.0378x    frame=  366 fps=1.2 q=30.0 size=   13874kB time=00:00:12.00 bitrate=9470.4kbits/s speed=0.0379x    frame=  367 fps=1.2 q=30.0 size=   13874kB time=00:00:12.04 bitrate=9437.4kbits/s speed=0.038x    frame=  368 fps=1.1 q=30.0 size=   13874kB time=00:00:12.08 bitrate=9405.4kbits/s speed=0.0378x    frame=  370 fps=1.2 q=30.0 size=   13874kB time=00:00:12.16 bitrate=9340.4kbits/s speed=0.038x    frame=  373 fps=1.2 q=30.0 size=   13874kB time=00:00:12.29 bitrate=9245.5kbits/s speed=0.0383x    frame=  374 fps=1.2 q=30.0 size=   13874kB time=00:00:12.33 bitrate=9214.7kbits/s speed=0.0382x    frame=  376 fps=1.2 q=30.0 size=   13874kB time=00:00:12.41 bitrate=9152.4kbits/s speed=0.0382x    frame=  378 fps=1.2 q=30.0 size=   13874kB time=00:00:12.50 bitrate=9091.6kbits/s speed=0.0384x    frame=  382 fps=1.2 q=29.0 size=   13874kB time=00:00:12.66 bitrate=8971.8kbits/s speed=0.0385x    frame=  386 fps=1.2 q=29.0 size=   13874kB time=00:00:12.83 bitrate=8855.7kbits/s speed=0.0389x    frame=  388 fps=1.2 q=29.0 size=   13874kB time=00:00:12.91 bitrate=8798.1kbits/s speed=0.0388x    frame=  392 fps=1.2 q=29.0 size=   13874kB time=00:00:13.08 bitrate=8686.5kbits/s speed=0.0392x    frame=  394 fps=1.2 q=29.0 size=   13874kB time=00:00:13.16 bitrate=8631.1kbits/s speed=0.039x    frame=  399 fps=1.2 q=29.0 size=   13874kB time=00:00:13.37 bitrate=8496.9kbits/s speed=0.0394x    frame=  400 fps=1.2 q=29.0 size=   13874kB time=00:00:13.41 bitrate=8470.3kbits/s speed=0.0394x    frame=  404 fps=1.2 q=29.0 size=   13874kB time=00:00:13.58 bitrate=8366.8kbits/s speed=0.0397x    frame=  406 fps=1.2 q=28.0 size=   13874kB time=00:00:13.66 bitrate=8315.4kbits/s speed=0.0398x    frame=  407 fps=1.2 q=28.0 size=   13874kB time=00:00:13.70 bitrate=8290.5kbits/s speed=0.0399x    frame=  408 fps=1.2 q=28.0 size=   13874kB time=00:00:13.75 bitrate=8265.2kbits/s speed=0.0397x    frame=  410 fps=1.2 q=28.0 size=   13874kB time=00:00:13.83 bitrate=8215.6kbits/s speed=0.0399x    frame=  414 fps=1.2 q=28.0 size=   13874kB time=00:00:14.00 bitrate=8117.6kbits/s speed=0.04x    frame=  419 fps=1.2 q=28.0 size=   13874kB time=00:00:14.20 bitrate=7998.8kbits/s speed=0.0404x    frame=  420 fps=1.2 q=28.0 size=   13874kB time=00:00:14.25 bitrate=7975.2kbits/s speed=0.0404x    frame=  425 fps=1.2 q=28.0 size=   13874kB time=00:00:14.45 bitrate=7860.5kbits/s speed=0.0405x    frame=  427 fps=1.2 q=28.0 size=   13874kB time=00:00:14.54 bitrate=7815.1kbits/s speed=0.0407x    frame=  430 fps=1.2 q=27.0 size=   13874kB time=00:00:14.66 bitrate=7748.5kbits/s speed=0.0409x    frame=  431 fps=1.2 q=27.0 size=   13874kB time=00:00:14.70 bitrate=7726.9kbits/s speed=0.0408x    frame=  436 fps=1.2 q=27.0 size=   13874kB time=00:00:14.91 bitrate=7618.6kbits/s speed=0.0413x    frame=  437 fps=1.2 q=27.0 size=   13874kB time=00:00:14.95 bitrate=7597.7kbits/s speed=0.0412x    frame=  439 fps=1.2 q=27.0 size=   13874kB time=00:00:15.04 bitrate=7555.3kbits/s speed=0.0409x    frame=  441 fps=1.2 q=27.0 size=   13874kB time=00:00:15.12 bitrate=7513.8kbits/s speed=0.041x    frame=  442 fps=1.2 q=27.0 size=   13874kB time=00:00:15.16 bitrate=7493.0kbits/s speed=0.041x    frame=  444 fps=1.2 q=27.0 size=   13874kB time=00:00:15.25 bitrate=7452.3kbits/s speed=0.0412x    frame=  445 fps=1.2 q=27.0 size=   18748kB time=00:00:15.29 bitrate=10042.5kbits/s speed=0.0411x    frame=  446 fps=1.2 q=27.0 size=   18748kB time=00:00:15.33 bitrate=10015.6kbits/s speed=0.0409x    frame=  448 fps=1.2 q=27.0 size=   18748kB time=00:00:15.41 bitrate=9961.1kbits/s speed=0.0411x    frame=  449 fps=1.2 q=27.0 size=   18748kB time=00:00:15.45 bitrate=9934.6kbits/s speed=0.0411x    frame=  450 fps=1.2 q=27.0 size=   18748kB time=00:00:15.50 bitrate=9907.7kbits/s speed=0.0411x    frame=  452 fps=1.2 q=27.0 size=   18748kB time=00:00:15.58 bitrate=9855.0kbits/s speed=0.041x    frame=  453 fps=1.2 q=27.0 size=   18748kB time=00:00:15.62 bitrate=9828.5kbits/s speed=0.041x    frame=  454 fps=1.2 q=27.0 size=   18748kB time=00:00:15.66 bitrate=9802.1kbits/s speed=0.0411x    frame=  455 fps=1.2 q=27.0 size=   18748kB time=00:00:15.70 bitrate=9776.5kbits/s speed=0.041x    frame=  457 fps=1.2 q=27.0 size=   18748kB time=00:00:15.79 bitrate=9724.5kbits/s speed=0.0411x    frame=  459 fps=1.2 q=27.0 size=   18748kB time=00:00:15.87 bitrate=9673.7kbits/s speed=0.041x    frame=  461 fps=1.2 q=27.0 size=   18748kB time=00:00:15.95 bitrate=9623.4kbits/s speed=0.0411x    frame=  464 fps=1.2 q=27.0 size=   18748kB time=00:00:16.08 bitrate=9548.6kbits/s speed=0.0411x    frame=  465 fps=1.2 q=27.0 size=   18748kB time=00:00:16.12 bitrate=9523.7kbits/s speed=0.041x    frame=  467 fps=1.2 q=27.0 size=   18748kB time=00:00:16.20 bitrate=9475.0kbits/s speed=0.0412x    frame=  468 fps=1.2 q=27.0 size=   18748kB time=00:00:16.25 bitrate=9450.5kbits/s speed=0.0412x    frame=  469 fps=1.2 q=27.0 size=   18748kB time=00:00:16.29 bitrate=9426.1kbits/s speed=0.0412x    frame=  471 fps=1.2 q=27.0 size=   18748kB time=00:00:16.37 bitrate=9378.3kbits/s speed=0.0409x    frame=  472 fps=1.2 q=27.0 size=   18748kB time=00:00:16.41 bitrate=9354.3kbits/s speed=0.041x    frame=  473 fps=1.2 q=27.0 size=   18748kB time=00:00:16.45 bitrate=9331.0kbits/s speed=0.041x    frame=  475 fps=1.2 q=27.0 size=   18748kB time=00:00:16.54 bitrate=9283.7kbits/s speed=0.0412x    frame=  476 fps=1.2 q=27.0 size=   18748kB time=00:00:16.58 bitrate=9260.7kbits/s speed=0.0411x    frame=  477 fps=1.2 q=27.0 size=   18748kB time=00:00:16.62 bitrate=9237.3kbits/s speed=0.041x    frame=  480 fps=1.2 q=27.0 size=   18748kB time=00:00:16.75 bitrate=9168.4kbits/s speed=0.0411x    frame=  481 fps=1.2 q=27.0 size=   18748kB time=00:00:16.79 bitrate=9145.5kbits/s speed=0.0412x    frame=  482 fps=1.2 q=27.0 size=   18748kB time=00:00:16.83 bitrate=9123.2kbits/s speed=0.0411x    frame=  483 fps=1.2 q=27.0 size=   18748kB time=00:00:16.87 bitrate=9100.5kbits/s speed=0.0411x    frame=  485 fps=1.2 q=27.0 size=   18748kB time=00:00:16.95 bitrate=9055.9kbits/s speed=0.0411x    frame=  486 fps=1.2 q=27.0 size=   18748kB time=00:00:17.00 bitrate=9033.6kbits/s speed=0.0411x    frame=  487 fps=1.2 q=27.0 size=   18748kB time=00:00:17.04 bitrate=9011.3kbits/s speed=0.0412x    frame=  489 fps=1.2 q=27.0 size=   18748kB time=00:00:17.12 bitrate=8967.6kbits/s speed=0.0411x    frame=  490 fps=1.2 q=27.0 size=   18748kB time=00:00:17.16 bitrate=8945.7kbits/s speed=0.0412x    frame=  492 fps=1.2 q=27.0 size=   18748kB time=00:00:17.25 bitrate=8902.7kbits/s speed=0.0413x    frame=  494 fps=1.2 q=27.0 size=   18748kB time=00:00:17.33 bitrate=8860.0kbits/s speed=0.0409x    frame=  496 fps=1.2 q=27.0 size=   18748kB time=00:00:17.41 bitrate=8817.3kbits/s speed=0.0411x    frame=  497 fps=1.2 q=27.0 size=   18748kB time=00:00:17.45 bitrate=8796.6kbits/s speed=0.0411x    frame=  498 fps=1.2 q=27.0 size=   18748kB time=00:00:17.50 bitrate=8775.5kbits/s speed=0.0412x    frame=  500 fps=1.2 q=27.0 size=   18748kB time=00:00:17.58 bitrate=8734.1kbits/s speed=0.0411x    frame=  500 fps=1.2 q=27.0 size=   18748kB time=00:00:17.58 bitrate=8734.1kbits/s speed=0.0411x    frame=  500 fps=1.0 q=-1.0 Lsize=   26836kB time=00:00:20.70 bitrate=10615.8kbits/s speed=0.0429x    
video:26832kB audio:0kB subtitle:0kB other streams:0kB global headers:0kB muxing overhead: 0.017736%
bench: utime=1821.388s
bench: maxrss=2795824kB
[libx264 @ 0x46671c0] frame I:3     Avg QP:21.66  size:279137
[libx264 @ 0x46671c0] frame P:268   Avg QP:29.03  size: 69508
[libx264 @ 0x46671c0] frame B:229   Avg QP:28.88  size: 34975
[libx264 @ 0x46671c0] consecutive B-frames: 36.2%  7.6% 18.0% 17.6% 11.0%  9.6%  0.0%  0.0%  0.0%
[libx264 @ 0x46671c0] mb I  I16..4: 11.5% 79.7%  8.8%
[libx264 @ 0x46671c0] mb P  I16..4: 19.2% 22.3%  0.4%  P16..4: 31.3%  3.1%  2.2%  0.0%  0.0%    skip:21.4%
[libx264 @ 0x46671c0] mb B  I16..4:  1.0%  2.3%  0.1%  B16..8: 33.3%  3.7%  0.7%  direct: 1.5%  skip:57.3%  L0:43.6% L1:52.4% BI: 4.0%
[libx264 @ 0x46671c0] final ratefactor: 24.52
[libx264 @ 0x46671c0] 8x8 transform intra:54.6% inter:86.9%
[libx264 @ 0x46671c0] direct mvs  spatial:99.1% temporal:0.9%
[libx264 @ 0x46671c0] coded y,uvDC,uvAC intra: 18.1% 21.8% 2.0% inter: 7.0% 5.6% 0.1%
[libx264 @ 0x46671c0] i16 v,h,dc,p: 21% 24% 10% 45%
[libx264 @ 0x46671c0] i8 v,h,dc,ddl,ddr,vr,hd,vl,hu: 16% 14% 23%  6%  8%  8% 10%  7%  9%
[libx264 @ 0x46671c0] i4 v,h,dc,ddl,ddr,vr,hd,vl,hu: 14% 16%  7%  7% 13% 11% 14%  7% 11%
[libx264 @ 0x46671c0] i8c dc,h,v,p: 58% 25% 12%  5%
[libx264 @ 0x46671c0] Weighted P-Frames: Y:1.5% UV:1.1%
[libx264 @ 0x46671c0] ref P L0: 63.6% 16.5%  8.7%  3.0%  1.8%  1.4%  1.2%  0.7%  0.6%  0.6%  0.5%  0.4%  0.3%  0.3%  0.3%  0.2%
[libx264 @ 0x46671c0] ref B L0: 87.4%  6.1%  2.5%  1.1%  0.8%  0.5%  0.4%  0.3%  0.3%  0.2%  0.2%  0.1%  0.1%  0.1%  0.1%
[libx264 @ 0x46671c0] ref B L1: 98.2%  1.8%
[libx264 @ 0x46671c0] kb/s:10550.33
